<svg width="57" height="57" viewBox="0 0 57 57" fill="none" xmlns="http://www.w3.org/2000/svg">
<path d="M28.5 40.375C29.8117 40.375 30.875 39.3117 30.875 38C30.875 36.6883 29.8117 35.625 28.5 35.625C27.1883 35.625 26.125 36.6883 26.125 38C26.125 39.3117 27.1883 40.375 28.5 40.375Z" stroke="white" stroke-width="3" stroke-linecap="round" stroke-linejoin="round"/>
<path d="M45.41 25.65H12.16C9.53668 25.65 7.41003 27.649 7.41003 30.115V47.975C7.41003 50.4409 9.53668 52.44 12.16 52.44H45.41C48.0334 52.44 50.16 50.4409 50.16 47.975V30.115C50.16 27.649 48.0334 25.65 45.41 25.65Z" stroke="white" stroke-width="5" stroke-linecap="round" stroke-linejoin="round"/>
<path d="M16.625 23.75V16.625C16.625 13.4756 17.8761 10.4551 20.1031 8.22811C22.3301 6.00111 25.3506 4.75 28.5 4.75C31.6494 4.75 34.6699 6.00111 36.8969 8.22811C39.1239 10.4551 40.375 13.4756 40.375 16.625V23.75" stroke="white" stroke-width="5" stroke-linecap="round" stroke-linejoin="round"/>
</svg>
