<svg width="50" height="50" viewBox="0 0 50 50" fill="none" xmlns="http://www.w3.org/2000/svg">
<path d="M32.2917 23.9583H30.2084L27.0834 30.2083L22.9167 17.7083L19.7917 23.9583H17.7084M24.9858 10.6996C20.8205 5.83 13.8746 4.52009 8.6557 8.97919C3.43684 13.4383 2.7021 20.8937 6.80049 26.1675C9.8961 30.1509 18.6903 38.1478 22.8084 41.8227C23.5655 42.4982 23.944 42.836 24.3872 42.969C24.772 43.0844 25.1996 43.0844 25.5844 42.969C26.0276 42.836 26.4062 42.4982 27.1632 41.8227C31.2813 38.1478 40.0755 30.1509 43.1711 26.1675C47.2695 20.8937 46.6245 13.3914 41.3159 8.97919C36.0074 4.56699 29.1511 5.83 24.9858 10.6996Z" stroke="#F4F1FF" stroke-width="4" stroke-linecap="round" stroke-linejoin="round"/>
</svg>
