<svg width="50" height="50" viewBox="0 0 50 50" fill="none" xmlns="http://www.w3.org/2000/svg">
<path d="M28.1864 17.3997C26.9939 18.2499 25.5345 18.75 23.9583 18.75C19.9312 18.75 16.6666 15.4854 16.6666 11.4583C16.6666 7.43126 19.9312 4.16667 23.9583 4.16667C26.5687 4.16667 28.8587 5.53837 30.1468 7.6003M12.5 41.8482H17.9381C18.6471 41.8482 19.3518 41.9326 20.0392 42.1014L25.7852 43.4977C27.0319 43.8014 28.3307 43.8309 29.5905 43.5863L35.9437 42.3502C37.6219 42.0233 39.1658 41.2197 40.3757 40.0427L44.8706 35.6702C46.1542 34.4237 46.1542 32.4009 44.8706 31.1522C43.7149 30.028 41.8848 29.9014 40.5773 30.8548L35.3387 34.6768C34.5885 35.2252 33.6756 35.5205 32.7367 35.5205H27.6781L30.898 35.5203C32.7129 35.5203 34.183 34.0903 34.183 32.3248V31.6857C34.183 30.2198 33.1574 28.9416 31.6959 28.5872L26.7262 27.3786C25.9174 27.1825 25.0891 27.0833 24.2565 27.0833C22.2465 27.0833 18.6081 28.7475 18.6081 28.7475L12.5 31.3018M41.6666 13.5417C41.6666 17.5687 38.402 20.8333 34.375 20.8333C30.3479 20.8333 27.0833 17.5687 27.0833 13.5417C27.0833 9.51459 30.3479 6.25001 34.375 6.25001C38.402 6.25001 41.6666 9.51459 41.6666 13.5417ZM4.16663 30.4167L4.16663 42.5C4.16663 43.6668 4.16663 44.2502 4.3937 44.6958C4.59343 45.0878 4.91214 45.4065 5.30415 45.6063C5.74979 45.8333 6.33318 45.8333 7.49996 45.8333H9.16662C10.3334 45.8333 10.9168 45.8333 11.3624 45.6063C11.7544 45.4065 12.0732 45.0878 12.2729 44.6958C12.5 44.2502 12.5 43.6668 12.5 42.5V30.4167C12.5 29.2499 12.5 28.6665 12.2729 28.2209C12.0732 27.8289 11.7544 27.5101 11.3624 27.3104C10.9168 27.0833 10.3334 27.0833 9.16663 27.0833L7.49996 27.0833C6.33318 27.0833 5.7498 27.0833 5.30415 27.3104C4.91214 27.5101 4.59343 27.8289 4.3937 28.2209C4.16663 28.6665 4.16663 29.2499 4.16663 30.4167Z" stroke="#F4F1FF" stroke-width="4" stroke-linecap="round" stroke-linejoin="round"/>
</svg>
