<svg width="50" height="50" viewBox="0 0 50 50" fill="none" xmlns="http://www.w3.org/2000/svg">
<path d="M31.2501 18.75H31.2709M18.7501 18.75H18.7709M45.8334 25C45.8334 36.5059 36.506 45.8333 25.0001 45.8333C13.4941 45.8333 4.16675 36.5059 4.16675 25C4.16675 13.4941 13.4941 4.16667 25.0001 4.16667C36.506 4.16667 45.8334 13.4941 45.8334 25ZM32.2917 18.75C32.2917 19.3253 31.8254 19.7917 31.2501 19.7917C30.6748 19.7917 30.2084 19.3253 30.2084 18.75C30.2084 18.1747 30.6748 17.7083 31.2501 17.7083C31.8254 17.7083 32.2917 18.1747 32.2917 18.75ZM19.7917 18.75C19.7917 19.3253 19.3254 19.7917 18.7501 19.7917C18.1748 19.7917 17.7084 19.3253 17.7084 18.75C17.7084 18.1747 18.1748 17.7083 18.7501 17.7083C19.3254 17.7083 19.7917 18.1747 19.7917 18.75ZM25.0001 36.4583C30.2095 36.4583 34.3751 32.6396 34.3751 29.1667H15.6251C15.6251 32.6396 19.7907 36.4583 25.0001 36.4583Z" stroke="#F4F1FF" stroke-width="4" stroke-linecap="round" stroke-linejoin="round"/>
</svg>
