<svg width="114" height="53" viewBox="0 0 114 53" fill="none" xmlns="http://www.w3.org/2000/svg">
<path d="M109.479 6.92744C111.688 6.93458 113.473 8.73121 113.466 10.9403C113.459 13.1495 111.662 14.9345 109.453 14.9274L109.479 6.92744ZM52.9656 16.9275L51.8634 13.0824L52.9656 16.9275ZM3.51707 43.8133C1.37095 43.2894 0.0558813 41.1249 0.579773 38.9788L9.1171 4.00578C9.64099 1.85966 11.8055 0.544588 13.9516 1.06848C16.0977 1.59237 17.4128 3.75685 16.8889 5.90297L9.30015 36.9901L40.3873 44.5789C42.5334 45.1028 43.8485 47.2672 43.3246 49.4133C42.8007 51.5595 40.6362 52.8745 38.4901 52.3506L3.51707 43.8133ZM109.466 10.9274C109.453 14.9274 109.453 14.9274 109.453 14.9274C109.453 14.9274 109.453 14.9274 109.453 14.9274C109.452 14.9274 109.451 14.9274 109.449 14.9274C109.446 14.9274 109.44 14.9274 109.433 14.9274C109.418 14.9273 109.394 14.9273 109.362 14.9273C109.299 14.9273 109.203 14.9273 109.076 14.9276C108.821 14.9283 108.441 14.93 107.948 14.9343C106.962 14.943 105.524 14.9622 103.731 15.0041C100.141 15.088 95.1339 15.263 89.4706 15.6266C78.0619 16.3592 64.2967 17.8408 54.0677 20.7727L51.8634 13.0824C62.9643 9.90055 77.4491 8.38208 88.958 7.64305C94.7536 7.27089 99.8722 7.09212 103.544 7.00629C105.38 6.96335 106.857 6.94362 107.878 6.93463C108.388 6.93014 108.785 6.92833 109.055 6.92765C109.191 6.92731 109.295 6.92725 109.366 6.92728C109.401 6.9273 109.429 6.92733 109.447 6.92737C109.457 6.92738 109.464 6.9274 109.469 6.92741C109.472 6.92742 109.474 6.92743 109.476 6.92743C109.476 6.92743 109.477 6.92744 109.477 6.92744C109.478 6.92744 109.479 6.92744 109.466 10.9274ZM54.0677 20.7727C44.4037 23.5427 32.5778 29.1314 23.014 34.1373C18.2665 36.6222 14.1392 38.9299 11.2002 40.6157C9.73146 41.4581 8.56132 42.1442 7.76101 42.618C7.3609 42.8549 7.05337 43.0387 6.8473 43.1623C6.74428 43.2242 6.66664 43.271 6.61548 43.3018C6.58991 43.3173 6.57096 43.3288 6.55878 43.3361C6.55268 43.3398 6.54828 43.3425 6.54559 43.3441C6.54424 43.345 6.54332 43.3455 6.54283 43.3458C6.54259 43.346 6.54254 43.346 6.54242 43.3461C6.54248 43.346 6.54265 43.3459 4.46567 39.9274C2.38868 36.5089 2.38906 36.5087 2.38956 36.5084C2.38987 36.5082 2.39047 36.5078 2.39109 36.5075C2.39232 36.5067 2.39399 36.5057 2.39609 36.5044C2.40028 36.5019 2.40619 36.4983 2.4138 36.4937C2.42902 36.4845 2.45104 36.4711 2.47973 36.4538C2.53708 36.4192 2.62109 36.3686 2.73061 36.3028C2.94966 36.1714 3.27086 35.9794 3.68528 35.7341C4.51402 35.2434 5.71609 34.5387 7.21989 33.6762C10.226 31.9519 14.4455 29.5926 19.3041 27.0495C28.9526 21.9993 41.3766 16.0882 51.8634 13.0824L54.0677 20.7727Z" fill="white"/>
</svg>
