<svg width="57" height="57" viewBox="0 0 57 57" fill="none" xmlns="http://www.w3.org/2000/svg">
<g id="music-note-01">
<path id="Icon" d="M21.375 42.75V15.0941C21.375 13.9504 21.375 13.3786 21.5831 12.9148C21.7665 12.506 22.0618 12.1574 22.4349 11.9093C22.8582 11.6278 23.4222 11.5338 24.5503 11.3458L45.4503 7.86245C46.9726 7.60873 47.7337 7.48187 48.3269 7.7022C48.8475 7.89555 49.2838 8.2652 49.5601 8.74689C49.875 9.29579 49.875 10.0674 49.875 11.6107V38M21.375 42.75C21.375 46.685 18.185 49.875 14.25 49.875C10.315 49.875 7.125 46.685 7.125 42.75C7.125 38.815 10.315 35.625 14.25 35.625C18.185 35.625 21.375 38.815 21.375 42.75ZM49.875 38C49.875 41.935 46.685 45.125 42.75 45.125C38.815 45.125 35.625 41.935 35.625 38C35.625 34.065 38.815 30.875 42.75 30.875C46.685 30.875 49.875 34.065 49.875 38Z" stroke="#F4F1FF" stroke-width="7" stroke-linecap="round" stroke-linejoin="round"/>
</g>
</svg>
