<svg width="505" height="123" viewBox="0 0 505 123" fill="none" xmlns="http://www.w3.org/2000/svg">
<path d="M17.4725 106.49H35.2095V71.4258H49.5214C60.5306 71.4258 65.9128 76.8015 66.6468 86.3311C67.3807 95.7386 67.6254 105.513 69.8272 106.49H86.8302V105.635C83.7721 104.291 84.2614 94.8833 83.0382 82.5437C81.9373 71.9145 77.7783 67.2719 69.7049 64.9506V64.5841C80.9587 61.5297 85.7293 53.7105 85.7293 43.4479C85.7293 28.9091 74.4755 19.1352 57.5948 19.1352H17.4725V106.49ZM35.2095 33.4296H54.5367C63.9556 33.4296 68.4816 38.6831 68.4816 45.7692C68.4816 52.7331 63.711 57.7423 54.0474 57.7423H35.2095V33.4296ZM135.315 106.49H151.34V105.879C149.872 104.779 149.138 101.969 149.138 97.2047V65.3171C149.138 50.6562 141.554 42.2261 122.716 42.2261C104.367 42.2261 96.1715 51.8779 95.6822 62.8736H110.483C110.973 56.8871 114.765 54.0771 122.594 54.0771C129.566 54.0771 133.113 57.0093 133.113 61.5297C133.113 66.2945 128.343 67.1497 117.945 68.6158C104 70.5706 92.7464 74.9689 92.7464 88.7746C92.7464 101.236 101.798 107.956 114.642 107.956C125.407 107.956 129.933 104.291 133.113 99.526H133.358C133.725 102.336 134.337 105.268 135.315 106.49ZM118.679 96.3494C112.808 96.3494 108.893 94.2725 108.893 88.4081C108.893 82.5437 113.175 80.5889 121.86 78.6341C126.019 77.6567 130.545 76.6793 133.48 74.9689V84.3763C133.48 90.4851 128.22 96.3494 118.679 96.3494ZM154.85 54.8101H163.535V91.5846C163.535 103.436 172.465 106.612 180.538 106.612C187.143 106.612 190.935 106.368 190.935 106.368V94.1503C190.935 94.1503 188.122 94.2725 186.042 94.2725C182.373 94.2725 179.804 92.6842 179.804 88.0416V54.8101H190.568V43.8144H179.804V24.2665H163.535V43.8144H154.85V54.8101ZM199.135 106.49H215.771V43.8144H199.135V106.49ZM199.135 34.0404H215.771V19.1352H199.135V34.0404Z" fill="#F4F1FF"/>
<path d="M254.22 42.5951C259.93 42.5951 264.601 43.7616 268.494 45.9648C272.257 48.2977 274.982 51.5378 276.799 55.8148L278.096 55.2963C276.28 50.8898 273.425 47.3905 269.272 44.928C265.12 42.5951 260.059 41.2991 254.22 41.2991C246.564 41.2991 240.206 43.3728 235.275 47.3905C230.344 51.4082 227.878 56.4628 227.878 62.6838C227.878 67.3495 229.306 71.108 232.16 73.9593C235.015 76.9402 239.297 79.1435 245.266 80.5691L257.983 83.8092C262.395 84.9757 265.509 86.4013 267.326 88.0862C269.143 89.771 270.181 91.9743 270.181 94.5664C270.181 98.1953 268.624 101.176 265.769 103.25C262.784 105.453 258.891 106.49 254.09 106.49C247.602 106.49 241.763 105.064 236.702 101.954C231.641 98.8433 228.527 94.8256 227.229 89.6414L225.932 90.1598C227.229 95.4736 230.603 99.7505 235.794 102.991C240.984 106.231 247.083 107.786 254.09 107.786C262.395 107.786 269.013 105.842 274.203 101.695C279.394 97.5473 281.989 92.2335 281.989 85.4941C281.989 80.8283 280.432 76.9402 277.577 73.9593C274.593 71.108 269.662 68.6456 262.784 66.7015L250.068 63.3318C245.656 62.295 242.671 60.8693 240.984 59.3141C239.297 57.7588 238.519 55.6852 238.519 53.0931C238.519 49.9826 239.946 47.5201 242.801 45.576C245.656 43.632 249.548 42.5951 254.22 42.5951ZM350.196 86.4013C348.639 92.3631 345.914 96.8992 341.762 100.269C337.609 103.639 332.938 105.323 327.488 105.323C321 105.323 316.199 102.861 313.084 97.9361C309.97 93.0111 308.413 85.6237 308.413 75.6442V72.0153H351.883C351.883 67.7383 351.105 63.7206 349.677 59.8325C348.25 56.074 346.304 52.8339 343.708 49.9826C340.853 47.1313 337.609 45.0576 333.976 43.5024C330.213 42.0767 326.061 41.2991 321.649 41.2991C317.107 41.2991 312.825 42.2063 308.672 43.8912C304.52 45.576 301.016 47.9089 298.032 51.0194C294.917 54.1299 292.582 57.7588 291.025 61.9061C289.467 66.0535 288.689 70.46 288.689 75.1258C288.689 79.7915 289.467 84.0684 291.154 87.9566C292.841 91.9743 295.307 95.4736 298.421 98.4545C301.535 101.435 305.169 103.768 309.321 105.323C313.474 107.008 317.626 107.786 322.038 107.786C329.694 107.786 336.052 105.972 341.243 102.343C346.304 98.7137 349.677 93.5295 351.494 86.7901L350.196 86.4013ZM321.649 42.4655C325.801 42.4655 328.915 44.6688 330.732 48.9457C332.549 53.2227 333.587 60.4805 333.587 70.7192H308.413C308.672 61.1285 309.84 54.1299 312.046 49.4642C314.122 44.7984 317.366 42.4655 321.649 42.4655ZM419.824 106.49L393.223 68.9048L413.855 42.5951H412.298L392.445 67.8679L374.667 42.5951H354.165L378.041 76.4218L354.165 106.49H355.722L378.819 77.4586L399.322 106.49H419.824ZM482.62 86.4013C481.063 92.3631 478.338 96.8992 474.186 100.269C470.034 103.639 465.362 105.323 459.912 105.323C453.424 105.323 448.623 102.861 445.508 97.9361C442.394 93.0111 440.837 85.6237 440.837 75.6442V72.0153H484.307C484.307 67.7383 483.529 63.7206 482.101 59.8325C480.674 56.074 478.728 52.8339 476.132 49.9826C473.278 47.1313 470.033 45.0576 466.4 43.5024C462.637 42.0767 458.485 41.2991 454.073 41.2991C449.531 41.2991 445.249 42.2063 441.096 43.8912C436.944 45.576 433.44 47.9089 430.456 51.0194C427.342 54.1299 425.006 57.7588 423.449 61.9061C421.892 66.0535 421.113 70.46 421.113 75.1258C421.113 79.7915 421.892 84.0684 423.578 87.9566C425.265 91.9743 427.731 95.4736 430.845 98.4545C433.959 101.435 437.593 103.768 441.745 105.323C445.898 107.008 450.05 107.786 454.462 107.786C462.118 107.786 468.476 105.972 473.667 102.343C478.728 98.7137 482.101 93.5295 483.918 86.7901L482.62 86.4013ZM454.073 42.4655C458.225 42.4655 461.339 44.6688 463.156 48.9457C464.973 53.2227 466.011 60.4805 466.011 70.7192H440.837C441.096 61.1285 442.264 54.1299 444.47 49.4642C446.546 44.7984 449.791 42.4655 454.073 42.4655Z" fill="#E779C1"/>
</svg>
