<svg width="139" height="34" viewBox="0 0 139 34" fill="none" xmlns="http://www.w3.org/2000/svg">
<path d="M4.80933 29.4363H9.69139V19.7438H13.6307C16.661 19.7438 18.1424 21.2297 18.3444 23.8639C18.5464 26.4644 18.6138 29.1661 19.2198 29.4363H23.8999V29.1999C23.0581 28.8284 23.1928 26.228 22.8561 22.817C22.5531 19.8789 21.4083 18.5955 19.1862 17.9539V17.8525C22.2837 17.0082 23.5968 14.8469 23.5968 12.01C23.5968 7.99117 20.4993 5.28943 15.8529 5.28943H4.80933V29.4363ZM9.69139 9.24073H15.0112C17.6037 9.24073 18.8495 10.6929 18.8495 12.6517C18.8495 14.5767 17.5364 15.9613 14.8765 15.9613H9.69139V9.24073ZM37.2452 29.4363H41.6559V29.2674C41.2519 28.9635 41.0499 28.1867 41.0499 26.8696V18.0552C41.0499 14.0026 38.9624 11.6723 33.7773 11.6723C28.7269 11.6723 26.471 14.3403 26.3364 17.3797H30.4103C30.545 15.7249 31.5888 14.9482 33.7436 14.9482C35.6628 14.9482 36.6392 15.7587 36.6392 17.0082C36.6392 18.3253 35.3261 18.5618 32.4642 18.967C28.6259 19.5074 25.5283 20.7231 25.5283 24.5394C25.5283 27.9841 28.0198 29.8415 31.5551 29.8415C34.518 29.8415 35.7638 28.8284 36.6392 27.5113H36.7065C36.8075 28.288 36.9759 29.0986 37.2452 29.4363ZM32.6662 26.6332C31.0501 26.6332 29.9726 26.0591 29.9726 24.438C29.9726 22.817 31.1511 22.2766 33.5416 21.7363C34.6864 21.4661 35.9321 21.196 36.7402 20.7231V23.3236C36.7402 25.0122 35.2924 26.6332 32.6662 26.6332ZM42.6221 15.1508H45.0126V25.3161C45.0126 28.592 47.4705 29.47 49.6927 29.47C51.5108 29.47 52.5546 29.4025 52.5546 29.4025V26.0253C52.5546 26.0253 51.7802 26.0591 51.2078 26.0591C50.1977 26.0591 49.4907 25.6201 49.4907 24.3367V15.1508H52.4536V12.1113H49.4907V6.70784H45.0126V12.1113H42.6221V15.1508ZM54.8116 29.4363H59.3906V12.1113H54.8116V29.4363ZM54.8116 9.40959H59.3906V5.28943H54.8116V9.40959Z" fill="#2D1B69"/>
<path d="M69.9735 11.7743C71.5451 11.7743 72.8309 12.0967 73.9024 12.7057C74.9382 13.3506 75.6882 14.2462 76.1883 15.4285L76.5454 15.2852C76.0454 14.0671 75.2596 13.0998 74.1167 12.4191C72.9737 11.7743 71.5808 11.416 69.9735 11.416C67.8662 11.416 66.1161 11.9892 64.7589 13.0998C63.4016 14.2104 62.723 15.6076 62.723 17.3272C62.723 18.6169 63.1159 19.6559 63.9017 20.444C64.6874 21.268 65.8661 21.8771 67.5091 22.2711L71.0093 23.1668C72.2237 23.4892 73.0809 23.8833 73.5809 24.349C74.081 24.8148 74.3667 25.4238 74.3667 26.1403C74.3667 27.1434 73.9381 27.9674 73.1523 28.5406C72.3308 29.1496 71.2593 29.4362 69.9378 29.4362C68.152 29.4362 66.5447 29.0422 65.1517 28.1824C63.7588 27.3225 62.9016 26.2119 62.5444 24.7789L62.1873 24.9222C62.5444 26.3911 63.4731 27.5733 64.9017 28.469C66.3304 29.3646 68.0091 29.7945 69.9378 29.7945C72.2237 29.7945 74.0453 29.2571 75.4739 28.1107C76.9026 26.9643 77.6169 25.4954 77.6169 23.6325C77.6169 22.3428 77.1883 21.268 76.4026 20.444C75.5811 19.6559 74.2238 18.9752 72.3308 18.4378L68.8306 17.5064C67.6162 17.2197 66.7947 16.8257 66.3304 16.3958C65.8661 15.9659 65.6518 15.3926 65.6518 14.6761C65.6518 13.8163 66.0447 13.1356 66.8304 12.5983C67.6162 12.0609 68.6877 11.7743 69.9735 11.7743ZM96.3908 23.8833C95.9622 25.5313 95.2122 26.7852 94.0692 27.7166C92.9263 28.6481 91.6405 29.1138 90.1404 29.1138C88.3545 29.1138 87.033 28.4331 86.1758 27.0718C85.3186 25.7104 84.89 23.6683 84.89 20.9098V19.9067H96.8551C96.8551 18.7244 96.6408 17.6138 96.2479 16.5391C95.8551 15.5001 95.3193 14.6045 94.605 13.8163C93.8192 13.0282 92.9263 12.455 91.9262 12.025C90.8904 11.631 89.7475 11.416 88.5331 11.416C87.283 11.416 86.1044 11.6668 84.9614 12.1325C83.8185 12.5983 82.8541 13.2431 82.0326 14.1029C81.1754 14.9627 80.5325 15.9659 80.1039 17.1123C79.6753 18.2587 79.461 19.4768 79.461 20.7665C79.461 22.0562 79.6753 23.2384 80.1396 24.3132C80.604 25.4238 81.2826 26.3911 82.1398 27.2151C82.997 28.039 83.9971 28.6839 85.14 29.1138C86.2829 29.5795 87.4259 29.7945 88.6403 29.7945C90.7475 29.7945 92.4977 29.2929 93.9263 28.2898C95.3193 27.2867 96.2479 25.8537 96.748 23.9908L96.3908 23.8833ZM88.5331 11.7384C89.676 11.7384 90.5332 12.3475 91.0333 13.5297C91.5333 14.712 91.819 16.7182 91.819 19.5484H84.89C84.9614 16.8973 85.2829 14.9627 85.8901 13.673C86.4615 12.3833 87.3544 11.7384 88.5331 11.7384ZM115.556 29.4362L108.234 19.0468L113.913 11.7743H113.484L108.019 18.7602L103.126 11.7743H97.483L104.055 21.1247L97.483 29.4362H97.9116L104.269 21.4113L109.912 29.4362H115.556ZM132.84 23.8833C132.412 25.5313 131.662 26.7852 130.519 27.7166C129.376 28.6481 128.09 29.1138 126.59 29.1138C124.804 29.1138 123.482 28.4331 122.625 27.0718C121.768 25.7104 121.339 23.6683 121.339 20.9098V19.9067H133.305C133.305 18.7244 133.09 17.6138 132.697 16.5391C132.304 15.5001 131.769 14.6045 131.054 13.8163C130.269 13.0282 129.376 12.455 128.376 12.025C127.34 11.631 126.197 11.416 124.982 11.416C123.732 11.416 122.554 11.6668 121.411 12.1325C120.268 12.5983 119.304 13.2431 118.482 14.1029C117.625 14.9627 116.982 15.9659 116.553 17.1123C116.125 18.2587 115.91 19.4768 115.91 20.7665C115.91 22.0562 116.125 23.2384 116.589 24.3132C117.053 25.4238 117.732 26.3911 118.589 27.2151C119.446 28.039 120.446 28.6839 121.589 29.1138C122.732 29.5795 123.875 29.7945 125.09 29.7945C127.197 29.7945 128.947 29.2929 130.376 28.2898C131.769 27.2867 132.697 25.8537 133.197 23.9908L132.84 23.8833ZM124.982 11.7384C126.125 11.7384 126.983 12.3475 127.483 13.5297C127.983 14.712 128.268 16.7182 128.268 19.5484H121.339C121.411 16.8973 121.732 14.9627 122.339 13.673C122.911 12.3833 123.804 11.7384 124.982 11.7384Z" fill="#E779C1"/>
</svg>
