<svg width="114" height="53" viewBox="0 0 114 53" fill="none" xmlns="http://www.w3.org/2000/svg">
<path d="M4.45281 6.92744C2.24368 6.93458 0.458613 8.73121 0.465749 10.9403C0.472885 13.1495 2.26952 14.9345 4.47865 14.9274L4.45281 6.92744ZM60.9658 16.9275L62.068 13.0824L60.9658 16.9275ZM110.414 43.8133C112.56 43.2894 113.876 41.1249 113.352 38.9788L104.814 4.00578C104.29 1.85966 102.126 0.544588 99.9798 1.06848C97.8337 1.59237 96.5186 3.75685 97.0425 5.90297L104.631 36.9901L73.5441 44.5789C71.398 45.1028 70.0829 47.2672 70.6068 49.4133C71.1307 51.5595 73.2952 52.8745 75.4413 52.3506L110.414 43.8133ZM4.46573 10.9274C4.47865 14.9274 4.47844 14.9274 4.47836 14.9274C4.47852 14.9274 4.47857 14.9274 4.47888 14.9274C4.47949 14.9274 4.48063 14.9274 4.4823 14.9274C4.48565 14.9274 4.49111 14.9274 4.49867 14.9274C4.51378 14.9273 4.53728 14.9273 4.56896 14.9273C4.63233 14.9273 4.72846 14.9273 4.85586 14.9276C5.11067 14.9283 5.49049 14.93 5.98339 14.9343C6.9693 14.943 8.40694 14.9622 10.2009 15.0041C13.7905 15.088 18.7975 15.263 24.4608 15.6266C35.8695 16.3592 49.6347 17.8408 59.8637 20.7727L62.068 13.0824C50.9671 9.90055 36.4823 8.38208 24.9734 7.64305C19.1778 7.27089 14.0592 7.09212 10.3878 7.00629C8.55129 6.96335 7.07461 6.94362 6.05383 6.93463C5.54338 6.93014 5.14676 6.92833 4.87597 6.92765C4.74056 6.92731 4.6366 6.92725 4.56558 6.92728C4.53007 6.9273 4.50279 6.92733 4.48393 6.92737C4.4745 6.92738 4.46718 6.9274 4.46199 6.92741C4.45939 6.92742 4.45732 6.92743 4.45579 6.92743C4.45503 6.92743 4.45428 6.92744 4.4539 6.92744C4.45328 6.92744 4.45281 6.92744 4.46573 10.9274ZM59.8637 20.7727C69.5277 23.5427 81.3536 29.1314 90.9174 34.1373C95.6649 36.6222 99.7922 38.9299 102.731 40.6157C104.2 41.4581 105.37 42.1442 106.17 42.618C106.57 42.8549 106.878 43.0387 107.084 43.1623C107.187 43.2242 107.265 43.271 107.316 43.3018C107.341 43.3173 107.36 43.3288 107.373 43.3361C107.379 43.3398 107.383 43.3425 107.386 43.3441C107.387 43.345 107.388 43.3455 107.389 43.3458C107.389 43.346 107.389 43.346 107.389 43.3461C107.389 43.346 107.389 43.3459 109.466 39.9274C111.543 36.5089 111.542 36.5087 111.542 36.5084C111.542 36.5082 111.541 36.5078 111.54 36.5075C111.539 36.5067 111.537 36.5057 111.535 36.5044C111.531 36.5019 111.525 36.4983 111.518 36.4937C111.502 36.4845 111.48 36.4711 111.452 36.4538C111.394 36.4192 111.31 36.3686 111.201 36.3028C110.982 36.1714 110.661 35.9794 110.246 35.7341C109.417 35.2434 108.215 34.5387 106.712 33.6762C103.705 31.9519 99.4859 29.5926 94.6273 27.0495C84.9788 21.9993 72.5548 16.0882 62.068 13.0824L59.8637 20.7727Z" fill="white"/>
</svg>
